Coordinates
version=1
nRows=31
nColumns=38
inDegrees=no

Units are S.I. units (second, meters, Newtons, ...)
If the header above contains a line with 'inDegrees', this indicates whether rotational values are in degrees (yes) or radians (no).

endheader
time	pelvis_tilt	pelvis_list	pelvis_rotation	pelvis_tx	pelvis_ty	pelvis_tz	hip_flexion_r	hip_adduction_r	hip_rotation_r	knee_angle_r	ankle_angle_r	subtalar_angle_r	mtp_angle_r	hip_flexion_l	hip_adduction_l	hip_rotation_l	knee_angle_l	ankle_angle_l	subtalar_angle_l	mtp_angle_l	lumbar_extension	lumbar_bending	lumbar_rotation	arm_flex_r	arm_add_r	arm_rot_r	elbow_flex_r	pro_sup_r	wrist_flex_r	wrist_dev_r	arm_flex_l	arm_add_l	arm_rot_l	elbow_flex_l	pro_sup_l	wrist_flex_l	wrist_dev_l
1.38	0.511896	1.3693	1.20127	0.681707	1.13341	1.03875	0.308513	0.105499	-0.222015	0.291741	-0.0470149	0	0	0.370585	-0.141845	0.0894928	1.16112	-0.140549	0	0	0.0956523	0.11398	-0.0768283	-0.0173226	-0.26856	0.242528	0.511299	1.5708	0	0	-0.0453942	-0.277347	0.526699	0.524299	1.10259	0	0
1.39	0.495442	1.37439	1.21229	0.682334	1.14519	1.04156	0.287497	0.10383	-0.22691	0.279412	-0.0546982	0	0	0.383911	-0.138823	0.0774414	1.14158	-0.126533	0	0	0.0934068	0.107885	-0.0690804	-0.0122774	-0.272483	0.241383	0.5262	1.5708	0	0	-0.0553716	-0.275883	0.518305	0.517398	1.09422	0	0
1.4	0.484746	1.38042	1.218	0.682927	1.15697	1.04431	0.264872	0.102681	-0.231458	0.267034	-0.0643232	0	0	0.39469	-0.136936	0.0648935	1.11682	-0.114778	0	0	0.0893376	0.102716	-0.0619481	-0.00774431	-0.27705	0.240284	0.5434	1.5708	0	0	-0.0651959	-0.274683	0.509705	0.511561	1.08443	0	0
1.41	0.473821	1.38594	1.22443	0.683468	1.16868	1.04689	0.242883	0.101304	-0.235614	0.255397	-0.0733007	0	0	0.404734	-0.135505	0.0519203	1.08681	-0.106592	0	0	0.0855774	0.097709	-0.0560035	-0.0030711	-0.281658	0.239845	0.561193	1.5708	0	0	-0.0750254	-0.274199	0.502373	0.506454	1.07457	0	0
1.42	0.459834	1.39103	1.23309	0.684023	1.18038	1.0493	0.221651	0.0994931	-0.239051	0.244367	-0.0820483	0	0	0.413498	-0.134469	0.0363156	1.05108	-0.0993862	0	0	0.0821909	0.0924901	-0.0499069	0.00173509	-0.286235	0.239918	0.579388	1.5708	0	0	-0.0847069	-0.273737	0.495688	0.501365	1.06388	0	0
1.43	0.445443	1.39522	1.24139	0.684561	1.19207	1.05146	0.201408	0.0978402	-0.242459	0.233557	-0.0907128	0	0	0.421331	-0.134016	0.0190346	1.01015	-0.092523	0	0	0.0795763	0.0877087	-0.0436782	0.00633666	-0.291054	0.240365	0.598244	1.5708	0	0	-0.0942307	-0.273079	0.490189	0.496284	1.05238	0	0
1.44	0.431763	1.39835	1.24966	0.684999	1.20378	1.05334	0.182251	0.0963035	-0.247616	0.222862	-0.0989281	0	0	0.428558	-0.133867	0.00190127	0.964208	-0.0868911	0	0	0.0782221	0.0834588	-0.0388038	0.0106052	-0.296098	0.241278	0.617754	1.5708	0	0	-0.103552	-0.272406	0.486622	0.490928	1.04052	0	0
1.45	0.418868	1.39988	1.25879	0.685326	1.21555	1.05486	0.164323	0.0952312	-0.254688	0.211515	-0.107038	0	0	0.435771	-0.133239	-0.0130899	0.913066	-0.0842824	0	0	0.0791929	0.0796389	-0.0359877	0.0141023	-0.300936	0.242135	0.637487	1.5708	0	0	-0.113148	-0.271937	0.484153	0.485773	1.02863	0	0
1.46	0.403797	1.40042	1.27068	0.685593	1.22733	1.05604	0.147495	0.093992	-0.261969	0.200331	-0.114573	0	0	0.441769	-0.131359	-0.0261809	0.855775	-0.0856918	0	0	0.0815774	0.0756349	-0.0342308	0.0171021	-0.305535	0.242765	0.657741	1.5708	0	0	-0.122985	-0.271753	0.48213	0.48133	1.0166	0	0
1.47	0.387243	1.40155	1.28272	0.685922	1.23897	1.05698	0.130924	0.0925064	-0.266677	0.191127	-0.120893	0	0	0.443984	-0.127925	-0.0385832	0.790933	-0.0903677	0	0	0.0825264	0.0714247	-0.0317947	0.0203199	-0.310262	0.243094	0.679364	1.5708	0	0	-0.132245	-0.271755	0.480211	0.477651	1.00413	0	0
1.48	0.371484	1.40369	1.29318	0.686235	1.25055	1.05773	0.11339	0.0906712	-0.2697	0.182498	-0.126818	0	0	0.441477	-0.123189	-0.0487049	0.717427	-0.10009	0	0	0.081313	0.0672271	-0.0283377	0.0227898	-0.314833	0.24083	0.703042	1.5708	0	0	-0.139993	-0.271926	0.480244	0.474364	0.989998	0	0
1.49	0.356783	1.40521	1.30258	0.68654	1.26217	1.0581	0.0964621	0.0891269	-0.272822	0.174045	-0.131047	0	0	0.437153	-0.118585	-0.0588622	0.637634	-0.114638	0	0	0.0805724	0.0632313	-0.0250604	0.0241048	-0.318592	0.235989	0.72761	1.5708	0	0	-0.147366	-0.272342	0.481963	0.471291	0.978272	0	0
1.5	0.346907	1.40645	1.30702	0.686802	1.27388	1.05809	0.0793223	0.0884142	-0.275837	0.165171	-0.134323	0	0	0.431825	-0.115598	-0.0719733	0.555341	-0.134653	0	0	0.0796701	0.0602871	-0.0214179	0.0237935	-0.322663	0.229313	0.753985	1.5708	0	0	-0.154151	-0.272646	0.485768	0.468133	0.970414	0	0
1.51	0.341346	1.40826	1.3069	0.68693	1.28577	1.0577	0.0612476	0.088136	-0.277124	0.156648	-0.136618	0	0	0.425721	-0.113632	-0.0894965	0.474052	-0.158521	0	0	0.0773969	0.0583335	-0.0173013	0.0217739	-0.327392	0.220738	0.783119	1.5708	0	0	-0.160527	-0.273022	0.489911	0.466286	0.963364	0	0
1.52	0.342802	1.40978	1.30013	0.686965	1.2977	1.05686	0.0432649	0.0888898	-0.277481	0.148954	-0.137205	0	0	0.420996	-0.113108	-0.111544	0.397146	-0.184146	0	0	0.0744851	0.057865	-0.0128849	0.0177115	-0.332336	0.20942	0.814811	1.5708	0	0	-0.166222	-0.273432	0.494074	0.465895	0.956034	0	0
1.53	0.349582	1.41025	1.28828	0.686986	1.30971	1.0555	0.0263291	0.0907166	-0.277602	0.141926	-0.136234	0	0	0.418796	-0.113393	-0.136865	0.326074	-0.209102	0	0	0.0722831	0.0585816	-0.00831116	0.0120768	-0.337134	0.196471	0.847335	1.5708	0	0	-0.17149	-0.274082	0.499139	0.466308	0.94914	0	0
1.54	0.359384	1.40892	1.27344	0.687015	1.32175	1.05363	0.0109015	0.09361	-0.275451	0.134622	-0.134443	0	0	0.4199	-0.113998	-0.162393	0.261668	-0.228188	0	0	0.0719408	0.0602365	-0.00470941	0.0067823	-0.341225	0.184457	0.878267	1.5708	0	0	-0.177077	-0.274587	0.503765	0.466707	0.94383	0	0
1.55	0.37027	1.40635	1.25838	0.686886	1.33376	1.05131	-0.00310644	0.0969023	-0.272996	0.128248	-0.131167	0	0	0.423833	-0.114125	-0.187722	0.203641	-0.244232	0	0	0.0721666	0.0624691	-0.00126991	0.000164775	-0.344901	0.170574	0.909566	1.5708	0	0	-0.181337	-0.275131	0.510139	0.466812	0.939412	0	0
1.56	0.3815	1.40241	1.24426	0.686536	1.34575	1.04858	-0.0153461	0.1005	-0.271236	0.123626	-0.126144	0	0	0.430215	-0.113345	-0.208558	0.151406	-0.25366	0	0	0.07359	0.0652667	0.00145921	-0.0072834	-0.348081	0.155582	0.939985	1.5708	0	0	-0.184482	-0.275238	0.51739	0.466267	0.934858	0	0
1.57	0.393204	1.39729	1.23062	0.68602	1.35778	1.04545	-0.0258915	0.104347	-0.269858	0.120824	-0.120577	0	0	0.438103	-0.111786	-0.222708	0.104259	-0.25518	0	0	0.0765619	0.0686012	0.00206159	-0.0135168	-0.35077	0.142943	0.967379	1.5708	0	0	-0.188022	-0.274631	0.522743	0.465414	0.930579	0	0
1.58	0.405537	1.39201	1.21701	0.685401	1.36983	1.04205	-0.0358582	0.108174	-0.268191	0.119551	-0.115156	0	0	0.446677	-0.109583	-0.231982	0.0636208	-0.252582	0	0	0.0798178	0.07192	0.000925976	-0.0178536	-0.352588	0.132776	0.990714	1.5708	0	0	-0.191621	-0.273927	0.527163	0.464311	0.927502	0	0
1.59	0.416273	1.38614	1.2044	0.684741	1.38195	1.03839	-0.0443402	0.111542	-0.265761	0.120726	-0.105838	0	0	0.454561	-0.106497	-0.235066	0.0234003	-0.248232	0	0	0.0826164	0.0756973	0.00312126	-0.0261151	-0.354379	0.117629	1.01707	1.5708	0	0	-0.192515	-0.272799	0.533708	0.462218	0.922795	0	0
1.6	0.424772	1.38151	1.19404	0.684081	1.39418	1.0348	-0.053026	0.1138	-0.26422	0.123755	-0.0986469	0	0	0.462576	-0.102951	-0.239682	0	-0.24413	0	0	0.0849832	0.0779783	0.00322895	-0.0304518	-0.354522	0.107156	1.03594	1.5708	0	0	-0.19391	-0.271893	0.539038	0.459557	0.919368	0	0
1.61	0.430019	1.37739	1.18632	0.683401	1.40651	1.0312	-0.060719	0.114977	-0.260692	0.130096	-0.0823976	0	0	0.472075	-0.0993027	-0.249339	0	-0.231352	0	0	0.0855992	0.0801709	0.00970389	-0.041623	-0.353317	0.085829	1.05918	1.5708	0	0	-0.189467	-0.271642	0.554765	0.454477	0.911129	0	0
1.62	0.432679	1.37562	1.18051	0.682749	1.41897	1.02789	-0.0693716	0.1144	-0.257442	0.138283	-0.0716347	0	0	0.478274	-0.0941053	-0.260203	0	-0.216655	0	0	0.0846907	0.08026	0.013156	-0.0468928	-0.351463	0.0734419	1.0739	1.5708	0	0	-0.186779	-0.2717	0.567829	0.45024	0.901516	0	0
1.63	0.432474	1.37585	1.17703	0.682122	1.43156	1.02491	-0.0783427	0.112017	-0.254439	0.149367	-0.0618976	0	0	0.48189	-0.0874409	-0.270742	0	-0.200546	0	0	0.0818934	0.0785238	0.0164189	-0.0502593	-0.348426	0.0630484	1.08435	1.5708	0	0	-0.183251	-0.271947	0.581338	0.445079	0.890739	0	0
1.64	0.428513	1.37773	1.17697	0.681536	1.44431	1.02231	-0.0876001	0.107866	-0.252062	0.16249	-0.0547944	0	0	0.483643	-0.0796651	-0.281014	0	-0.189602	0	0	0.077842	0.0748335	0.0189137	-0.0516686	-0.344373	0.055464	1.09013	1.5708	0	0	-0.179828	-0.271844	0.59124	0.438922	0.882722	0	0
1.65	0.422194	1.38113	1.17909	0.681021	1.45732	1.02013	-0.0973117	0.102255	-0.250177	0.177602	-0.0497691	0	0	0.483707	-0.0716238	-0.290746	0	-0.185617	0	0	0.072746	0.0695355	0.0214682	-0.0526072	-0.339088	0.0488647	1.09202	1.5708	0	0	-0.176385	-0.271569	0.5981	0.432453	0.876028	0	0
1.66	0.41514	1.38544	1.18203	0.680585	1.47065	1.01832	-0.107065	0.0957557	-0.249158	0.194801	-0.0470962	0	0	0.482239	-0.0641682	-0.298159	0	-0.186628	0	0	0.0674399	0.063431	0.0241967	-0.0537791	-0.332953	0.0429485	1.09036	1.5708	0	0	-0.17307	-0.271522	0.603426	0.426087	0.870863	0	0
1.67	0.40791	1.38997	1.18513	0.680213	1.4844	1.01678	-0.116227	0.0887367	-0.24878	0.214197	-0.046362	0	0	0.48035	-0.0583214	-0.305095	0.0122508	-0.187519	0	0	0.0630494	0.0570898	0.0270763	-0.0558522	-0.326002	0.0372731	1.08542	1.5708	0	0	-0.170433	-0.271991	0.60871	0.420333	0.86616	0	0
1.68	0.399776	1.39405	1.18835	0.679914	1.4986	1.01538	-0.124092	0.0812654	-0.247231	0.235633	-0.0480977	0	0	0.479091	-0.0544908	-0.313228	0.0441171	-0.18524	0	0	0.0608261	0.0509717	0.0305154	-0.0592063	-0.319089	0.0329739	1.07747	1.5708	0	0	-0.169419	-0.272706	0.613111	0.415729	0.861079	0	0
